<svg width="80" height="80" viewBox="0 0 80 80" fill="none" xmlns="http://www.w3.org/2000/svg">
<path d="M10 20V45" stroke="#4F4F4F" stroke-width="2" stroke-linecap="round" stroke-linejoin="round"/>
<path d="M16.9375 67.5001C19.4389 63.6634 22.8581 60.5114 26.8851 58.3296C30.9122 56.1478 35.4199 55.0051 40 55.0051C44.5801 55.0051 49.0879 56.1478 53.1149 58.3296C57.142 60.5114 60.5611 63.6634 63.0625 67.5001" stroke="#4F4F4F" stroke-width="2" stroke-linecap="round" stroke-linejoin="round"/>
<path d="M70 20L40 30L10 20L40 10L70 20Z" stroke="#4F4F4F" stroke-width="2" stroke-linecap="round" stroke-linejoin="round"/>
<path d="M52.9063 25.6875C55.1995 28.1918 56.7147 31.3092 57.267 34.6597C57.8193 38.0101 57.3849 41.4489 56.0168 44.5568C54.6487 47.6647 52.4059 50.3074 49.562 52.1628C46.718 54.0182 43.3957 55.0061 40 55.0061C36.6043 55.0061 33.282 54.0182 30.438 52.1628C27.5941 50.3074 25.3513 47.6647 23.9832 44.5568C22.6151 41.4489 22.1807 38.0101 22.733 34.6597C23.2854 31.3092 24.8005 28.1918 27.0938 25.6875" stroke="#4F4F4F" stroke-width="2" stroke-linecap="round" stroke-linejoin="round"/>
</svg>
